<svg width="10" height="20" viewBox="0 0 10 20" fill="none" xmlns="http://www.w3.org/2000/svg">
<path d="M9.63586 0.837067L7.32148 0.833252C4.72134 0.833252 3.04102 2.60416 3.04102 5.34511V7.42538H0.714013C0.512931 7.42538 0.350098 7.59284 0.350098 7.79939V10.8135C0.350098 11.02 0.513117 11.1873 0.714013 11.1873H3.04102V18.7928C3.04102 18.9993 3.20386 19.1666 3.40494 19.1666H6.44103C6.64211 19.1666 6.80494 18.9991 6.80494 18.7928V11.1873H9.52576C9.72684 11.1873 9.88968 11.02 9.88968 10.8135L9.89079 7.79939C9.89079 7.70022 9.85236 7.60523 9.78421 7.53505C9.71607 7.46486 9.62324 7.42538 9.52669 7.42538H6.80494V5.66191C6.80494 4.81431 7.00157 4.38403 8.07641 4.38403L9.63549 4.38346C9.83639 4.38346 9.99922 4.216 9.99922 4.00963V1.21089C9.99922 1.00472 9.83657 0.837448 9.63586 0.837067Z" fill="#086CF9"/>
</svg>
