<svg width="20" height="20" viewBox="0 0 20 20" fill="none" xmlns="http://www.w3.org/2000/svg">
<path d="M18.3291 18.3332V18.3325H18.3333V12.22C18.3333 9.22974 17.6896 6.92627 14.1937 6.92627C12.5132 6.92627 11.3854 7.84849 10.925 8.7228H10.8764V7.20544H7.56177V18.3325H11.0132V12.8228C11.0132 11.3721 11.2882 9.96933 13.0847 9.96933C14.8548 9.96933 14.8812 11.6249 14.8812 12.9159V18.3332H18.3291Z" fill="#086CF9"/>
<path d="M1.94165 7.2063H5.39721V18.3334H1.94165V7.2063Z" fill="#086CF9"/>
<path d="M3.66814 1.66675C2.56328 1.66675 1.66675 2.56328 1.66675 3.66814C1.66675 4.773 2.56328 5.68828 3.66814 5.68828C4.773 5.68828 5.66953 4.773 5.66953 3.66814C5.66883 2.56328 4.7723 1.66675 3.66814 1.66675V1.66675Z" fill="#086CF9"/>
</svg>
