<svg width="18" height="14" viewBox="0 0 18 14" fill="none" xmlns="http://www.w3.org/2000/svg">
<path d="M17.75 1.81036C17.1059 2.08364 16.4148 2.26897 15.6887 2.35172C16.4301 1.92659 16.9976 1.25227 17.2666 0.451245C16.5711 0.844942 15.8035 1.13082 14.9855 1.28579C14.3305 0.616702 13.3988 0.199951 12.3653 0.199951C10.3827 0.199951 8.77523 1.73917 8.77523 3.6365C8.77523 3.90559 8.80694 4.16841 8.86819 4.41973C5.88501 4.27626 3.23973 2.90772 1.46928 0.828185C1.1598 1.33499 0.983743 1.92552 0.983743 2.55589C0.983743 3.74853 1.618 4.80086 2.58033 5.41652C1.992 5.39769 1.43866 5.24272 0.954233 4.98512V5.02806C0.954233 6.69292 2.19213 8.0824 3.83353 8.39864C3.5328 8.47613 3.21568 8.51906 2.88761 8.51906C2.6558 8.51906 2.43161 8.49707 2.2118 8.45518C2.66889 9.82163 3.99429 10.8153 5.56463 10.8426C4.33657 11.764 2.7881 12.3116 1.10624 12.3116C0.816463 12.3116 0.53103 12.2949 0.25 12.2645C1.83893 13.2414 3.7253 13.8111 5.75273 13.8111C12.3566 13.8111 15.9665 8.57352 15.9665 4.03126L15.9544 3.58625C16.6597 3.10456 17.2699 2.49935 17.75 1.81036Z" fill="#086CF9"/>
</svg>
